G04*
G04 #@! TF.GenerationSoftware,Altium Limited,Altium Designer,22.6.1 (34)*
G04*
G04 Layer_Color=16711935*
%FSLAX44Y44*%
%MOMM*%
G71*
G04*
G04 #@! TF.SameCoordinates,45B2D7D6-BFBB-4C38-AB1A-0C575AC83147*
G04*
G04*
G04 #@! TF.FilePolarity,Positive*
G04*
G01*
G75*
%ADD13C,0.2000*%
G36*
X913919Y728619D02*
Y728600D01*
Y728526D01*
Y728415D01*
Y728267D01*
Y728081D01*
X913900Y727877D01*
Y727655D01*
Y727414D01*
X913863Y726895D01*
X913826Y726394D01*
X913808Y726153D01*
X913789Y725912D01*
X913752Y725708D01*
X913715Y725522D01*
Y725504D01*
Y725485D01*
X913678Y725374D01*
X913622Y725207D01*
X913548Y724985D01*
X913437Y724744D01*
X913326Y724484D01*
X913159Y724224D01*
X912973Y723983D01*
X912955Y723965D01*
X912880Y723872D01*
X912751Y723761D01*
X912602Y723631D01*
X912380Y723464D01*
X912139Y723297D01*
X911861Y723130D01*
X911545Y722982D01*
X911527D01*
X911508Y722964D01*
X911453Y722945D01*
X911378Y722926D01*
X911304Y722908D01*
X911193Y722871D01*
X910915Y722815D01*
X910581Y722741D01*
X910192Y722685D01*
X909728Y722648D01*
X909209Y722630D01*
X908931D01*
X908783Y722648D01*
X908616D01*
X908226Y722685D01*
X907800Y722723D01*
X907374Y722797D01*
X906947Y722889D01*
X906762Y722945D01*
X906576Y723019D01*
X906558D01*
X906539Y723038D01*
X906428Y723093D01*
X906261Y723186D01*
X906057Y723297D01*
X905835Y723464D01*
X905593Y723631D01*
X905371Y723854D01*
X905148Y724076D01*
X905130Y724113D01*
X905074Y724187D01*
X904982Y724317D01*
X904870Y724484D01*
X904759Y724688D01*
X904648Y724929D01*
X904537Y725170D01*
X904462Y725430D01*
Y725448D01*
Y725485D01*
X904444Y725541D01*
X904425Y725634D01*
X904407Y725726D01*
X904388Y725875D01*
X904370Y726023D01*
X904351Y726208D01*
X904333Y726412D01*
X904314Y726635D01*
X904296Y726895D01*
X904277Y727173D01*
X904258Y727469D01*
Y727803D01*
X904240Y728155D01*
Y728526D01*
Y735034D01*
X906706D01*
Y728415D01*
Y728396D01*
Y728341D01*
Y728267D01*
Y728155D01*
Y728044D01*
Y727896D01*
X906724Y727562D01*
Y727228D01*
X906743Y726895D01*
X906762Y726598D01*
Y726468D01*
X906780Y726375D01*
Y726338D01*
X906817Y726246D01*
X906873Y726116D01*
X906928Y725949D01*
X907040Y725745D01*
X907169Y725541D01*
X907318Y725356D01*
X907522Y725170D01*
X907559Y725152D01*
X907633Y725096D01*
X907763Y725022D01*
X907948Y724948D01*
X908171Y724874D01*
X908449Y724799D01*
X908783Y724744D01*
X909135Y724725D01*
X909302D01*
X909487Y724744D01*
X909728Y724781D01*
X909969Y724836D01*
X910229Y724911D01*
X910470Y725003D01*
X910693Y725152D01*
X910711Y725170D01*
X910785Y725226D01*
X910878Y725319D01*
X910971Y725448D01*
X911082Y725597D01*
X911193Y725763D01*
X911286Y725967D01*
X911341Y726190D01*
Y726227D01*
X911360Y726320D01*
X911378Y726468D01*
X911397Y726691D01*
X911416Y726969D01*
X911434Y727339D01*
Y727543D01*
X911453Y727766D01*
Y728007D01*
Y728267D01*
Y735034D01*
X913919D01*
Y728619D01*
D02*
G37*
G36*
X921985Y722852D02*
X919648D01*
Y731641D01*
X919630Y731623D01*
X919593Y731586D01*
X919519Y731530D01*
X919426Y731437D01*
X919296Y731345D01*
X919148Y731233D01*
X918981Y731104D01*
X918777Y730974D01*
X918573Y730825D01*
X918332Y730677D01*
X917831Y730399D01*
X917256Y730121D01*
X916626Y729880D01*
Y731994D01*
X916645D01*
X916663Y732012D01*
X916719Y732031D01*
X916793Y732049D01*
X916978Y732123D01*
X917219Y732253D01*
X917516Y732402D01*
X917850Y732606D01*
X918221Y732828D01*
X918610Y733125D01*
X918628Y733143D01*
X918665Y733162D01*
X918721Y733217D01*
X918777Y733273D01*
X918962Y733440D01*
X919203Y733681D01*
X919444Y733959D01*
X919685Y734293D01*
X919908Y734664D01*
X920075Y735072D01*
X921985D01*
Y722852D01*
D02*
G37*
D13*
X869679Y688069D02*
Y757191D01*
Y688069D02*
X938801D01*
Y757191D01*
X869679D02*
X938801D01*
M02*
