G04*
G04 #@! TF.GenerationSoftware,Altium Limited,Altium Designer,22.6.1 (34)*
G04*
G04 Layer_Physical_Order=1*
G04 Layer_Color=255*
%FSLAX44Y44*%
%MOMM*%
G71*
G04*
G04 #@! TF.SameCoordinates,FDA96D18-9E80-4915-BAA7-3A6B21B50570*
G04*
G04*
G04 #@! TF.FilePolarity,Positive*
G04*
G01*
G75*
%ADD12C,0.2540*%
%ADD14R,1.5240X1.4224*%
%ADD15R,1.1000X1.0000*%
%ADD16R,0.9100X1.2200*%
%ADD17R,1.2200X0.9100*%
%ADD18R,1.4224X1.5240*%
%ADD19R,3.5500X3.5500*%
G04:AMPARAMS|DCode=20|XSize=0.2425mm|YSize=1.0096mm|CornerRadius=0.1212mm|HoleSize=0mm|Usage=FLASHONLY|Rotation=180.000|XOffset=0mm|YOffset=0mm|HoleType=Round|Shape=RoundedRectangle|*
%AMROUNDEDRECTD20*
21,1,0.2425,0.7672,0,0,180.0*
21,1,0.0000,1.0096,0,0,180.0*
1,1,0.2425,0.0000,0.3836*
1,1,0.2425,0.0000,0.3836*
1,1,0.2425,0.0000,-0.3836*
1,1,0.2425,0.0000,-0.3836*
%
%ADD20ROUNDEDRECTD20*%
G04:AMPARAMS|DCode=21|XSize=1.0096mm|YSize=0.2425mm|CornerRadius=0.1212mm|HoleSize=0mm|Usage=FLASHONLY|Rotation=180.000|XOffset=0mm|YOffset=0mm|HoleType=Round|Shape=RoundedRectangle|*
%AMROUNDEDRECTD21*
21,1,1.0096,0.0000,0,0,180.0*
21,1,0.7672,0.2425,0,0,180.0*
1,1,0.2425,-0.3836,0.0000*
1,1,0.2425,0.3836,0.0000*
1,1,0.2425,0.3836,0.0000*
1,1,0.2425,-0.3836,0.0000*
%
%ADD21ROUNDEDRECTD21*%
%ADD22R,1.0096X0.2425*%
%ADD23C,0.1270*%
%ADD24C,0.3810*%
%ADD25C,0.5000*%
%ADD26C,2.0000*%
%ADD27R,2.0000X2.0000*%
%ADD28R,2.3000X2.3000*%
D12*
X799875Y1055260D02*
X784640D01*
Y1062878D01*
X787179Y1065417D01*
X789718D01*
X792258Y1062878D01*
Y1055260D01*
Y1062878D01*
X794797Y1065417D01*
X797336D01*
X799875Y1062878D01*
Y1055260D01*
X794797Y1073034D02*
Y1078113D01*
X792258Y1080652D01*
X784640D01*
Y1073034D01*
X787179Y1070495D01*
X789718Y1073034D01*
Y1080652D01*
X797336Y1088269D02*
X794797D01*
Y1085730D01*
Y1090808D01*
Y1088269D01*
X787179D01*
X784640Y1090808D01*
Y1108583D02*
Y1098426D01*
X794797Y1108583D01*
X797336D01*
X799875Y1106043D01*
Y1100965D01*
X797336Y1098426D01*
X827815Y1056530D02*
X812580D01*
Y1064147D01*
X815119Y1066687D01*
X817658D01*
X820198Y1064147D01*
Y1056530D01*
Y1064147D01*
X822737Y1066687D01*
X825276D01*
X827815Y1064147D01*
Y1056530D01*
X822737Y1074304D02*
Y1079383D01*
X820198Y1081922D01*
X812580D01*
Y1074304D01*
X815119Y1071765D01*
X817658Y1074304D01*
Y1081922D01*
X825276Y1089539D02*
X822737D01*
Y1087000D01*
Y1092078D01*
Y1089539D01*
X815119D01*
X812580Y1092078D01*
Y1099696D02*
Y1104774D01*
Y1102235D01*
X827815D01*
X825276Y1099696D01*
D14*
X867160Y1022000D02*
D03*
X844300D02*
D03*
X781730Y935000D02*
D03*
X758870D02*
D03*
X781730Y956000D02*
D03*
X758870D02*
D03*
X891160Y1043000D02*
D03*
X868300D02*
D03*
X919070Y986790D02*
D03*
X896210D02*
D03*
D15*
X754730Y1060500D02*
D03*
Y1029500D02*
D03*
X891730Y1099500D02*
D03*
Y1068500D02*
D03*
D16*
X793380Y1035000D02*
D03*
X826080D02*
D03*
X793380Y1010000D02*
D03*
X826080D02*
D03*
D17*
X778730Y975650D02*
D03*
Y1008350D02*
D03*
D18*
X891130Y956310D02*
D03*
Y933450D02*
D03*
D19*
X840330Y963930D02*
D03*
D20*
X857830Y988443D02*
D03*
X852830D02*
D03*
X847830D02*
D03*
X842830D02*
D03*
X837830D02*
D03*
X832830D02*
D03*
X827830D02*
D03*
X822830D02*
D03*
Y939417D02*
D03*
X827830D02*
D03*
X832830D02*
D03*
X837830D02*
D03*
X842830D02*
D03*
X847830D02*
D03*
X852830D02*
D03*
X857830D02*
D03*
D21*
X815817Y981430D02*
D03*
Y976430D02*
D03*
Y971430D02*
D03*
Y966430D02*
D03*
Y961430D02*
D03*
Y956430D02*
D03*
Y951430D02*
D03*
Y946430D02*
D03*
X864843D02*
D03*
Y951430D02*
D03*
Y956430D02*
D03*
Y961430D02*
D03*
Y966430D02*
D03*
Y971430D02*
D03*
Y976430D02*
D03*
D22*
Y981430D02*
D03*
D23*
X806230Y1052720D02*
Y1111140D01*
X834170Y1052720D02*
Y1111140D01*
X806230D01*
X834170Y1052720D02*
X806230D01*
X777020D02*
Y1111140D01*
X804960Y1052720D02*
Y1111140D01*
X777020D01*
X804960Y1052720D02*
X777020D01*
D24*
X813423Y981430D02*
X807160D01*
X815817D02*
X813423D01*
X807160D02*
X806970Y981240D01*
X806730D01*
X823435Y1005805D02*
X819535D01*
X813730Y1000000D01*
X826080Y1008450D02*
X823435Y1005805D01*
X813423Y981430D02*
X812730Y982123D01*
X813730Y998000D02*
Y1000000D01*
Y998000D02*
X812730Y997000D01*
Y982123D02*
Y997000D01*
X873160Y981430D02*
Y1000430D01*
X889135Y1016405D02*
X873160Y1000430D01*
X808730Y1042000D02*
X802730Y1048000D01*
X766230D02*
X757325Y1056905D01*
X802730Y1048000D02*
X766230D01*
X857560Y1062830D02*
X842730Y1048000D01*
X814730D01*
X808730Y1042000D01*
X868560Y1062830D02*
X857560D01*
X907403Y1085000D02*
X890730D01*
X868560Y1062830D01*
X917800Y1099820D02*
X914405Y1096425D01*
X917730Y1093100D02*
X915503D01*
X907403Y1085000D01*
X917730Y1067700D02*
X916930Y1068500D01*
X891860Y1042300D02*
X891160Y1043000D01*
X828080Y1037000D02*
X826080Y1035000D01*
X891730Y1068500D02*
X888635Y1065405D01*
X872325Y1047838D02*
Y1053595D01*
X884135Y1065405D02*
X872325Y1053595D01*
X888635Y1065405D02*
X884135D01*
X807887Y1004157D02*
Y1029326D01*
X808730Y1028483D02*
Y1042000D01*
X807887Y1004157D02*
X804730Y1001000D01*
X814595Y1022618D02*
X808730Y1028483D01*
X838585Y1022618D02*
X814595D01*
X804730Y997000D02*
Y1001000D01*
X787445Y961207D02*
X782238Y956000D01*
X787445Y961207D02*
Y961715D01*
X782238Y956000D02*
X781730D01*
X752430Y1085000D02*
Y1092200D01*
X784753Y938023D02*
X781730Y935000D01*
X792833Y938023D02*
X784753D01*
X801240Y946430D02*
X792833Y938023D01*
X838692Y1017122D02*
X838585Y1017230D01*
Y1022618D01*
X857830Y988443D02*
Y999100D01*
X867160Y1008430D02*
X857830Y999100D01*
X852830Y988443D02*
Y1000900D01*
X844300Y1009430D01*
X881730Y983198D02*
Y996000D01*
X912767Y1018587D02*
X904317D01*
X917800Y1023620D02*
X912767Y1018587D01*
X904317D02*
X881730Y996000D01*
Y983198D02*
X875152Y976620D01*
X891160Y1043000D02*
X889135Y1040975D01*
X852830Y976430D02*
X840330Y963930D01*
X852830Y976430D02*
Y988443D01*
X875152Y976620D02*
X865033D01*
X864843Y976430D01*
X890495Y981075D02*
X880850Y971430D01*
X890495Y981075D02*
Y981583D01*
X880850Y971430D02*
X864843D01*
X895702Y986790D02*
X890495Y981583D01*
X896210Y986790D02*
X895702D01*
X873160Y981430D02*
X864843D01*
X847830Y996900D02*
X847730Y997000D01*
X847830Y988443D02*
Y996900D01*
X842830Y991900D02*
X842640Y992090D01*
Y997000D01*
X842830Y988443D02*
Y991900D01*
X837830Y988443D02*
Y996900D01*
X837730Y997000D01*
X832830Y996900D02*
X832730Y997000D01*
X832830Y988443D02*
Y996900D01*
X827830Y988443D02*
Y996900D01*
X827730Y997000D01*
X822830Y996900D02*
X822730Y997000D01*
X822830Y988443D02*
Y996900D01*
X806970Y976240D02*
X806730D01*
X815817Y976430D02*
X807160D01*
X806970Y976240D01*
X815817Y971430D02*
X806160D01*
X805970Y971240D01*
X805730D01*
X806160Y966430D02*
X805970Y966240D01*
X805730D01*
X815817Y966430D02*
X806160D01*
Y961430D02*
X805780Y961050D01*
X805730D01*
X815817Y961430D02*
X806160D01*
X815817Y946430D02*
X801240D01*
X808160Y956430D02*
X807970Y956240D01*
X805730D01*
X815817Y956430D02*
X808160D01*
X805970Y951240D02*
X805730D01*
X815817Y951430D02*
X806160D01*
X805970Y951240D01*
X822830Y930100D02*
Y939417D01*
Y930100D02*
X822730Y930000D01*
X827830Y929100D02*
X827730Y929000D01*
X827830Y929100D02*
Y939417D01*
X832830Y929100D02*
X832730Y929000D01*
X832830Y929100D02*
Y939417D01*
X837920Y929000D02*
Y933810D01*
X837830Y933900D02*
Y939417D01*
X837920Y933810D02*
X837830Y933900D01*
X842830Y929100D02*
Y939417D01*
Y929100D02*
X842730Y929000D01*
X847830Y929100D02*
Y939417D01*
Y929100D02*
X847730Y929000D01*
X852830Y929100D02*
Y939417D01*
Y929100D02*
X852730Y929000D01*
X857830Y929100D02*
X857730Y929000D01*
X857830Y929100D02*
Y939417D01*
X873350Y946150D02*
X873070Y946430D01*
X864843D01*
X873350Y951500D02*
X869810D01*
X869740Y951430D02*
X864843D01*
X869810Y951500D02*
X869740Y951430D01*
X873230Y956430D02*
X864843D01*
X873350Y956310D02*
X873230Y956430D01*
X873310Y961430D02*
X864843D01*
X873350Y961390D02*
X873310Y961430D01*
X919070Y986790D02*
X917800Y985520D01*
X893670Y935990D02*
X891130Y933450D01*
X880970Y966470D02*
X878084D01*
X878044Y966430D02*
X864843D01*
X878084Y966470D02*
X878044Y966430D01*
X891130Y956818D02*
X885923Y962025D01*
X885415D01*
X891130Y956310D02*
Y956818D01*
X885415Y962025D02*
X880970Y966470D01*
D25*
X891730Y1099500D02*
X889927Y1097697D01*
X882427D01*
X870801Y1086071D01*
X856801D02*
X854730Y1084000D01*
X870801Y1086071D02*
X856801D01*
X889135Y1016405D02*
Y1040975D01*
X916930Y1068500D02*
X891730D01*
X917730Y1042300D02*
X891860D01*
X847730Y1037000D02*
X828080D01*
X852730Y1042000D02*
X847730Y1037000D01*
X872325Y1047838D02*
X867160Y1042673D01*
X867973D02*
X867300Y1042000D01*
X868300Y1043000D02*
X867973Y1042673D01*
X867300Y1042000D02*
X852730D01*
X867160Y1022000D02*
Y1032405D01*
Y1008430D02*
Y1022000D01*
X804730Y997000D02*
X795730Y988000D01*
Y970000D02*
Y988000D01*
Y970000D02*
X787445Y961715D01*
X793380Y1010000D02*
Y1035000D01*
X753730Y1060500D02*
Y1084000D01*
X754730Y1085000D02*
X753730Y1084000D01*
X757325Y1056905D02*
Y1057405D01*
X754230Y1060500D02*
X753730D01*
X757325Y1057405D02*
X754230Y1060500D01*
X753730Y1007700D02*
Y1029500D01*
X791730Y1008350D02*
X778730D01*
X793380Y1010000D02*
X791730Y1008350D01*
X778730Y975650D02*
X760380D01*
X753730Y982300D01*
X758870Y935000D02*
Y956000D01*
X867973Y1032405D02*
Y1042673D01*
X864875Y1027207D02*
Y1029307D01*
X844300Y1009430D02*
Y1022000D01*
X867973Y1032405D02*
X864875Y1029307D01*
X917800Y961390D02*
Y985520D01*
Y935990D02*
X893670D01*
D26*
X917730Y1093100D02*
D03*
Y1067700D02*
D03*
Y1042300D02*
D03*
X917800Y935990D02*
D03*
X753730Y1007700D02*
D03*
D27*
X917730Y1016900D02*
D03*
X917800Y961390D02*
D03*
X753730Y982300D02*
D03*
D28*
X854730Y1084000D02*
D03*
X755730Y1085000D02*
D03*
M02*
