G04*
G04 #@! TF.GenerationSoftware,Altium Limited,Altium Designer,22.6.1 (34)*
G04*
G04 Layer_Color=32896*
%FSLAX44Y44*%
%MOMM*%
G71*
G04*
G04 #@! TF.SameCoordinates,45B2D7D6-BFBB-4C38-AB1A-0C575AC83147*
G04*
G04*
G04 #@! TF.FilePolarity,Positive*
G04*
G01*
G75*
%ADD10C,0.2500*%
%ADD13C,0.2000*%
D10*
X942160Y791380D02*
G03*
X942160Y791380I-1250J0D01*
G01*
Y772330D02*
G03*
X942160Y772330I-1250J0D01*
G01*
X909843Y728530D02*
G03*
X909843Y728530I-1250J0D01*
G01*
D13*
X853190Y757888D02*
X896370D01*
X853190Y777192D02*
X896370D01*
X853190Y757888D02*
Y777192D01*
X896370Y757888D02*
Y777192D01*
X853190Y800052D02*
X896370D01*
X853190Y780748D02*
X896370D01*
Y800052D01*
X853190Y780748D02*
Y800052D01*
X916760Y771780D02*
Y787780D01*
Y771780D02*
X932360D01*
X916760Y787780D02*
X932360D01*
Y771780D02*
Y787780D01*
X916760Y752730D02*
Y768730D01*
Y752730D02*
X932360D01*
X916760Y768730D02*
X932360D01*
Y752730D02*
Y768730D01*
X932742Y732130D02*
Y748130D01*
X917142D02*
X932742D01*
X917142Y732130D02*
X932742D01*
X917142D02*
Y748130D01*
X902970Y686308D02*
X946150D01*
X902970Y705612D02*
X946150D01*
X902970Y686308D02*
Y705612D01*
X946150Y686308D02*
Y705612D01*
X891540Y728472D02*
X934720D01*
X891540Y709168D02*
X934720D01*
Y728472D01*
X891540Y709168D02*
Y728472D01*
X853440Y755142D02*
X896620D01*
X853440Y735838D02*
X896620D01*
Y755142D01*
X853440Y735838D02*
Y755142D01*
X854710Y686308D02*
X897890D01*
X854710Y705612D02*
X897890D01*
X854710Y686308D02*
Y705612D01*
X897890Y686308D02*
Y705612D01*
M02*
