G04*
G04 #@! TF.GenerationSoftware,Altium Limited,Altium Designer,22.6.1 (34)*
G04*
G04 Layer_Physical_Order=2*
G04 Layer_Color=16711680*
%FSLAX44Y44*%
%MOMM*%
G71*
G04*
G04 #@! TF.SameCoordinates,45B2D7D6-BFBB-4C38-AB1A-0C575AC83147*
G04*
G04*
G04 #@! TF.FilePolarity,Positive*
G04*
G01*
G75*
%ADD20R,1.5240X1.4224*%
%ADD29C,0.3810*%
%ADD30R,2.3000X2.3000*%
%ADD31R,2.0000X2.0000*%
%ADD32C,2.0000*%
%ADD33C,1.2700*%
%ADD34R,0.9100X1.2200*%
G36*
X910841Y749834D02*
X910871D01*
Y749849D01*
X910841D01*
Y749834D01*
D02*
G37*
G36*
X910826Y749880D02*
Y749910D01*
X910810D01*
Y749880D01*
X910826D01*
D02*
G37*
G36*
X911355Y749199D02*
Y749184D01*
X911370D01*
Y749199D01*
X911355D01*
D02*
G37*
G36*
X953448Y785217D02*
Y785202D01*
X953479D01*
Y785232D01*
X953464D01*
Y785217D01*
X953448D01*
D02*
G37*
D20*
X886210Y767540D02*
D03*
X863350D02*
D03*
Y790400D02*
D03*
X886210D02*
D03*
X935990Y695960D02*
D03*
X913130D02*
D03*
X901700Y718820D02*
D03*
X924560D02*
D03*
X863600Y745490D02*
D03*
X886460D02*
D03*
X887730Y695960D02*
D03*
X864870D02*
D03*
D29*
X896180Y718820D02*
X901700D01*
X896000Y719000D02*
X896180Y718820D01*
X899000Y721520D02*
X901700Y718820D01*
X899000Y721520D02*
Y754750D01*
X880495Y795607D02*
Y796115D01*
X870610Y806000D02*
X880495Y796115D01*
X885702Y790400D02*
X886210D01*
X880495Y795607D02*
X885702Y790400D01*
X841298Y805738D02*
X848265D01*
X848527Y806000D01*
X838200Y802640D02*
X841298Y805738D01*
X848527Y806000D02*
X870610D01*
X858398Y772492D02*
X863350Y767540D01*
Y768600D02*
X863600Y768350D01*
X859355Y772595D02*
X863350Y768600D01*
Y790400D01*
X853108Y772492D02*
X858398D01*
X853005Y772595D02*
X853108Y772492D01*
X936715Y783975D02*
X938265D01*
X940910Y779780D02*
Y781330D01*
X886210Y790400D02*
X930290D01*
X936715Y783975D01*
X938265D02*
X940910Y781330D01*
X908210Y760730D02*
Y779780D01*
X907905Y740817D02*
X908593Y740130D01*
X907905Y740817D02*
Y751113D01*
X907939Y751147D01*
Y760459D01*
X908210Y760730D01*
X891925Y761825D02*
X899000Y754750D01*
X886718Y767540D02*
X891925Y762333D01*
X886210Y767540D02*
X886718D01*
X891925Y761825D02*
Y762333D01*
X866467Y731000D02*
X874197D01*
X885952Y745490D02*
X886460D01*
X880745Y740283D02*
X885952Y745490D01*
X880745Y737548D02*
Y740283D01*
X874197Y731000D02*
X880745Y737548D01*
X859790Y728980D02*
X861491Y730681D01*
X866148D02*
X866467Y731000D01*
X861491Y730681D02*
X866148D01*
X924052Y718820D02*
X924560D01*
X918845Y713613D02*
X924052Y718820D01*
X918845Y710565D02*
Y713613D01*
X914400Y706120D02*
X918845Y710565D01*
X913130Y695960D02*
X914400Y697230D01*
Y706120D01*
X838200Y826770D02*
Y828040D01*
X859790Y715010D02*
X860733Y714067D01*
X869623D01*
X882015Y701675D01*
X861822Y745490D02*
X862330D01*
X864574Y696256D02*
X864870Y695960D01*
X882015Y701167D02*
Y701675D01*
Y701167D02*
X887222Y695960D01*
X887730D01*
X936933Y696903D02*
X952173D01*
X958850Y703580D01*
X935990Y695960D02*
X936933Y696903D01*
X838200Y802640D02*
X842581D01*
X838694Y721656D02*
X856615Y739577D01*
Y740283D01*
X861822Y745490D01*
X838200Y777240D02*
X840422Y775018D01*
X850582D02*
X850901Y774698D01*
X853005Y772595D01*
X840422Y775018D02*
X850582D01*
X957860Y740130D02*
X965200Y732790D01*
X938753Y740130D02*
X957860D01*
X838694Y696256D02*
X864574D01*
D30*
X867410Y831850D02*
D03*
X965410D02*
D03*
D31*
X966470Y732790D02*
D03*
X838694Y721656D02*
D03*
X838200Y751840D02*
D03*
D32*
X966470Y758190D02*
D03*
X838694Y696256D02*
D03*
X838200Y828040D02*
D03*
Y802640D02*
D03*
Y777240D02*
D03*
D33*
X896000Y719000D02*
D03*
X947420Y760730D02*
D03*
X859790Y728980D02*
D03*
Y715010D02*
D03*
X958850Y703580D02*
D03*
D34*
X908210Y779780D02*
D03*
X940910D02*
D03*
X908210Y760730D02*
D03*
X940910D02*
D03*
X941292Y740130D02*
D03*
X908593D02*
D03*
M02*
